<svg id="ÿ_1" data-name="ÿ‡ 1" xmlns="http://www.w3.org/2000/svg" viewBox="0 0 348.92 327.49"><defs><style>.cls-1{fill-rule:evenodd;}</style></defs><title>cogs</title><path class="cls-1" d="M185.38,245.06a29.6,29.6,0,1,0,29.6,29.6A29.64,29.64,0,0,0,185.38,245.06Z" transform="translate(-75.54 -86.25)"/><path class="cls-1" d="M286.1,256.92H273.78a13.35,13.35,0,0,1-11.9-8.7l-3.68-9a13.26,13.26,0,0,1,2.23-14.54l8.71-8.72a9.14,9.14,0,0,0,0-12.9L257,190.9a9.16,9.16,0,0,0-12.91,0l-8.72,8.71a13.26,13.26,0,0,1-14.54,2.23l-9-3.68a13.35,13.35,0,0,1-8.7-11.9V173.94a9.14,9.14,0,0,0-9.12-9.12H176.76a9.15,9.15,0,0,0-9.13,9.12v12.32a13.34,13.34,0,0,1-8.69,11.9l-9,3.68a13.26,13.26,0,0,1-14.54-2.23l-8.71-8.71a9.16,9.16,0,0,0-12.91,0l-12.18,12.19a9.14,9.14,0,0,0,0,12.9l8.71,8.72a13.26,13.26,0,0,1,2.23,14.54l-3.68,9a13.35,13.35,0,0,1-11.9,8.7H84.66A9.14,9.14,0,0,0,75.54,266v17.24a9.14,9.14,0,0,0,9.12,9.12H97a13.35,13.35,0,0,1,11.9,8.7l3.68,9a13.26,13.26,0,0,1-2.23,14.54l-8.71,8.71a9.16,9.16,0,0,0,0,12.91l12.18,12.18a9.16,9.16,0,0,0,12.91,0l8.71-8.71A13.26,13.26,0,0,1,150,347.48l9,3.68a13.34,13.34,0,0,1,8.69,11.9v12.32a9.15,9.15,0,0,0,9.13,9.12H194a9.14,9.14,0,0,0,9.12-9.12V363.06a13.35,13.35,0,0,1,8.7-11.9l9-3.68a13.26,13.26,0,0,1,14.54,2.23l8.72,8.71a9.16,9.16,0,0,0,12.91,0l12.18-12.18a9.16,9.16,0,0,0,0-12.91l-8.71-8.71a13.26,13.26,0,0,1-2.23-14.54l3.68-9a13.35,13.35,0,0,1,11.9-8.7H286.1a9.15,9.15,0,0,0,9.12-9.12V266A9.15,9.15,0,0,0,286.1,256.92ZM185.38,324.54a49.88,49.88,0,1,1,49.88-49.88A49.94,49.94,0,0,1,185.38,324.54Z" transform="translate(-75.54 -86.25)"/><path class="cls-1" d="M336.62,336.58a19.55,19.55,0,1,0,25.51-10.68A19.58,19.58,0,0,0,336.62,336.58Z" transform="translate(-75.54 -86.25)"/><path class="cls-1" d="M369.11,278,366,285.51a8.82,8.82,0,0,1-8.3,5.1h-6.41a8.75,8.75,0,0,1-8.33-5l-3.14-7.51a6,6,0,0,0-7.89-3.23l-10.5,4.39a6,6,0,0,0-3.24,7.89l3.15,7.51a8.76,8.76,0,0,1-2.29,9.45l-4.49,4.56a8.84,8.84,0,0,1-9.46,2.34l-7.52-3.09a6,6,0,0,0-7.87,3.29l-4.32,10.54a6,6,0,0,0,3.29,7.86l7.53,3.09a8.82,8.82,0,0,1,5.1,8.29v6.41a8.73,8.73,0,0,1-5,8.33l-7.51,3.15a6,6,0,0,0-3.24,7.88l4.4,10.51a6,6,0,0,0,7.89,3.23l7.51-3.14a8.77,8.77,0,0,1,9.45,2.28l4.56,4.5a8.8,8.8,0,0,1,2.33,9.45l-3.08,7.53a6,6,0,0,0,3.29,7.87l10.54,4.32a6.05,6.05,0,0,0,7.86-3.3l3.08-7.52a8.82,8.82,0,0,1,8.3-5.1h6.41a8.77,8.77,0,0,1,8.33,5l3.14,7.51a6,6,0,0,0,7.89,3.23l10.5-4.39a6,6,0,0,0,3.24-7.89l-3.14-7.51a8.75,8.75,0,0,1,2.28-9.45l4.5-4.56A8.8,8.8,0,0,1,404.3,377l7.53,3.09a6,6,0,0,0,7.86-3.29L424,366.25a6,6,0,0,0-3.29-7.86l-7.53-3.09a8.8,8.8,0,0,1-5.09-8.3v-6.4a8.73,8.73,0,0,1,5-8.33l7.51-3.15a6,6,0,0,0,3.23-7.88l-4.4-10.51a6,6,0,0,0-7.89-3.23l-7.51,3.14a8.76,8.76,0,0,1-9.44-2.28l-4.57-4.5a8.8,8.8,0,0,1-2.33-9.45l3.09-7.53a6.06,6.06,0,0,0-3.29-7.87L377,274.69A6,6,0,0,0,369.11,278Zm16.09,78.5a32.95,32.95,0,1,1-18-43A33,33,0,0,1,385.2,356.49Z" transform="translate(-75.54 -86.25)"/><path class="cls-1" d="M283.65,137.22a14.51,14.51,0,1,0,17-11.47A14.53,14.53,0,0,0,283.65,137.22Z" transform="translate(-75.54 -86.25)"/><path class="cls-1" d="M298.8,89.87l-1.16,5.93a6.54,6.54,0,0,1-5.29,4.91l-4.67.93a6.51,6.51,0,0,1-6.79-2.44l-3.37-5A4.48,4.48,0,0,0,271.31,93l-7,4.72a4.49,4.49,0,0,0-1.21,6.21l3.38,5a6.49,6.49,0,0,1-.3,7.2l-2.61,4a6.52,6.52,0,0,1-6.54,3.06L251.09,122a4.48,4.48,0,0,0-5.24,3.53l-1.62,8.3a4.48,4.48,0,0,0,3.53,5.24l5.93,1.16a6.53,6.53,0,0,1,4.91,5.3l.93,4.66a6.51,6.51,0,0,1-2.44,6.79l-5,3.37a4.49,4.49,0,0,0-1.21,6.21l4.72,7a4.48,4.48,0,0,0,6.21,1.21l5-3.37a6.49,6.49,0,0,1,7.21.29l4,2.61a6.51,6.51,0,0,1,3.06,6.54l-1.15,5.93a4.48,4.48,0,0,0,3.53,5.24l8.3,1.62a4.48,4.48,0,0,0,5.24-3.53l1.16-5.93a6.54,6.54,0,0,1,5.3-4.91l4.67-.92a6.47,6.47,0,0,1,6.78,2.43l3.38,5a4.47,4.47,0,0,0,6.2,1.21l7-4.72a4.48,4.48,0,0,0,1.21-6.21l-3.37-5a6.49,6.49,0,0,1,.29-7.2l2.61-4a6.55,6.55,0,0,1,6.54-3.06l5.93,1.15a4.49,4.49,0,0,0,5.25-3.53l1.61-8.29a4.48,4.48,0,0,0-3.53-5.25l-5.93-1.16a6.52,6.52,0,0,1-4.9-5.3l-.93-4.66a6.5,6.5,0,0,1,2.43-6.79l5-3.37a4.48,4.48,0,0,0,1.21-6.21l-4.72-7A4.48,4.48,0,0,0,334,105.2l-5,3.37a6.47,6.47,0,0,1-7.2-.29l-4-2.61a6.54,6.54,0,0,1-3.07-6.54l1.15-5.93A4.47,4.47,0,0,0,312.34,88l-8.29-1.62A4.49,4.49,0,0,0,298.8,89.87Zm23.08,54.8A24.45,24.45,0,1,1,302.57,116,24.47,24.47,0,0,1,321.88,144.67Z" transform="translate(-75.54 -86.25)"/></svg>