<svg xmlns="http://www.w3.org/2000/svg" width="500" height="985" viewBox="0.00014519691467285156 0 90.7636947631836 166.6479949951172"><path fill="#F00" d="M89.138 0H75.032c-1.249 0-2.028.612-2.209 1.502-.179.894-21.151 64.84-22.676 70.167-1.081 3.775-4.604 17.089-5.45 20.286l-7.294-19.914c-1.771-5.48-18.76-52.938-19.257-54.834-.274-1.042-.754-2.338-2.581-2.338H1.796c-1.348 0-2.107 1.478-1.674 2.394.348.732 25.22 66.903 35.269 92.183v55.58c0 1.015.405 1.622 1.417 1.622H49.85c.809 0 1.416-.607 1.416-1.622v-55.143C59.64 86.488 90.237 3.27 90.57 2.338 90.975 1.198 90.855 0 89.138 0z"/></svg>
